<?xml version="1.0" encoding="UTF-8" standalone="no"?>
<svg
   width="416.30997pt"
   height="321.20874pt"
   viewBox="0 0 416.30997 321.20874"
   version="1.1"
   id="svg81"
   xmlns="http://www.w3.org/2000/svg"
   xmlns:svg="http://www.w3.org/2000/svg">
  <defs
     id="defs20">
    <g
       id="g20">
      <g
         id="glyph-0-0">
        <path
           d="m 10.328125,0 h 6.640625 v -52.578125 h 8.734375 v -6.5625 H 1.6875 v 6.5625 h 8.640625 z m 0,0"
           id="path1" />
      </g>
      <g
         id="glyph-0-1">
        <path
           d="m 17.46875,-44.015625 c -4.453125,0 -7.71875,2.015625 -8.984375,5.375 l -0.171875,-5.375 H 3.359375 V 0 H 10 v -31.84375 c 0,-4.109375 2.765625,-5.875 5.375,-5.875 h 2.765625 v -6.296875 z m 0,0"
           id="path2" />
      </g>
      <g
         id="glyph-0-2">
        <path
           d="m 13.859375,-45.03125 c -4.875,0 -10.578125,2.4375 -10.578125,9.828125 v 5.796875 h 6.796875 v -5.703125 c 0,-3.859375 2.109375,-4.625 4.203125,-4.625 2.1875,0 4.109375,0.765625 4.109375,4.625 V -31.5 c 0,7.640625 -16.625,4.953125 -16.625,16.546875 v 5.046875 c 0,8.21875 3.359375,10.75 9.65625,10.75 3.859375,0 6.71875,-1.34375 8.15625,-3.703125 L 19.734375,0 h 5.375 v -35.703125 c 0,-7.390625 -5.375,-9.328125 -11.25,-9.328125 z M 18.5625,-10.328125 C 18.5625,-6.125 16.125,-4.875 13.609375,-4.875 10.671875,-4.875 8.5625,-6.125 8.5625,-10 v -4.953125 c 0,-4.625 6.046875,-5.546875 10,-8.234375 z m 0,0"
           id="path3" />
      </g>
      <g
         id="glyph-0-3">
        <path
           d="m 17.140625,-44.859375 c -3.609375,0 -6.71875,1.765625 -8.15625,4.625 l 0.25,-3.78125 h -5.875 V 0 H 10 v -33.015625 c 0,-4.453125 3.1875,-6.21875 5.703125,-6.21875 3.109375,0 4.453125,1.515625 4.453125,5.640625 V 0 h 6.640625 v -35.609375 c 0,-6.046875 -3.359375,-9.25 -9.65625,-9.25 z m 0,0"
           id="path4" />
      </g>
      <g
         id="glyph-0-4">
        <path
           d="m 13.53125,0.75 c 5.875,0 11,-2.515625 11,-10.75 v -5.03125 C 24.53125,-26.625 8.984375,-23.9375 8.984375,-31.5 v -3.703125 c 0,-3.859375 2.53125,-4.53125 4.546875,-4.53125 1.84375,0 4.1875,0.671875 4.1875,4.53125 v 6.3125 h 6.046875 v -6.71875 c 0,-7.40625 -5.375,-9.421875 -10.234375,-9.421875 -5.046875,0 -10.671875,2.015625 -10.671875,9.421875 v 4.78125 c 0,12.015625 15.375,9.328125 15.375,16.890625 v 3.859375 c 0,3.953125 -2.015625,5.125 -4.703125,5.125 -2.4375,0 -4.453125,-1.171875 -4.453125,-5.46875 v -5.125 H 2.9375 v 6.46875 c 0,7.3125 4.875,9.828125 10.59375,9.828125 z m 0,0"
           id="path5" />
      </g>
      <g
         id="glyph-0-5">
        <path
           d="M 3.359375,0 H 10 V -59.140625 H 3.359375 Z m 0,0"
           id="path6" />
      </g>
      <g
         id="glyph-0-6">
        <path
           d="m 20.578125,-38.046875 v -5.96875 h -7.3125 v -15.125 h -6.625 v 15.125 H 1.6875 v 5.96875 h 4.953125 v 30.0625 c 0,6.71875 3.359375,9.328125 9.65625,7.90625 l 4.28125,-0.765625 V -7.0625 c -5.96875,1.4375 -7.3125,1.09375 -7.3125,-3.859375 v -27.125 z m 0,0"
           id="path7" />
      </g>
      <g
         id="glyph-0-7">
        <path
           d="M 3.359375,-50.0625 H 10 v -9.078125 H 3.359375 Z m 0,50.0625 H 10 V -44.015625 H 3.359375 Z m 0,0"
           id="path8" />
      </g>
      <g
         id="glyph-0-8">
        <path
           d="m 13.78125,0.84375 h 0.421875 c 6.625,0 11,-4.125 11,-11.9375 V -33.1875 c 0,-7.71875 -4.375,-11.84375 -11,-11.84375 H 13.78125 c -6.640625,0 -11.015625,4.125 -11.015625,11.84375 v 22.09375 c 0,7.8125 4.375,11.9375 11.015625,11.9375 z m 0.07813,-5.890625 c -2.4375,0 -4.875,-1.671875 -4.875,-6.125 v -21.84375 c 0,-4.453125 2.4375,-6.21875 4.953125,-6.21875 h 0.09375 c 2.59375,0 5.03125,1.765625 5.03125,6.21875 v 21.84375 c 0,4.453125 -2.4375,6.125 -5.03125,6.125 z m 0,0"
           id="path9" />
      </g>
      <g
         id="glyph-0-9" />
      <g
         id="glyph-0-10">
        <path
           d="m 19.65625,-23.015625 c 3.859375,-1.09375 6.21875,-4.203125 6.21875,-10.25 V -48.96875 c 0,-7.734375 -4.875,-10.171875 -11.59375,-10.171875 H 3.359375 V 0 H 10 v -21.75 h 3.53125 L 19.65625,0 h 6.640625 z M 14.703125,-28.5625 H 10 V -53.25 h 4.28125 c 2.515625,0 5.375,0.40625 5.375,4.859375 v 14.125 c 0,4.453125 -1.84375,5.703125 -4.953125,5.703125 z m 0,0"
           id="path10" />
      </g>
      <g
         id="glyph-0-11">
        <path
           d="M 25.203125,-19.15625 V -33.765625 C 25.203125,-41.40625 20.5,-45.03125 14.28125,-45.03125 h -0.421875 c -6.390625,0 -11.09375,3.625 -11.09375,11.265625 v 23.09375 c 0,7.734375 4.796875,11.515625 11.09375,11.515625 h 0.421875 c 6.375,0 10.921875,-3.875 10.921875,-11.59375 v -1.765625 L 18.5625,-12.4375 v 1.09375 c 0,4.453125 -1.9375,6.21875 -4.453125,6.21875 h -0.07813 c -2.515625,0 -4.625,-1.765625 -4.625,-6.21875 v -7.8125 z M 14.03125,-39.140625 h 0.07813 c 2.015625,0 4.453125,1.671875 4.453125,6.125 v 8.90625 H 9.40625 v -8.90625 c 0,-4.453125 2.109375,-6.125 4.625,-6.125 z m 0,0"
           id="path11" />
      </g>
      <g
         id="glyph-0-12">
        <path
           d="m 13.859375,0.84375 c 6.96875,0 11.25,-3.875 11.25,-11.421875 v -7.140625 h -6.71875 v 6.546875 c 0,4.625 -2.4375,6.125 -4.453125,6.125 -2.09375,0 -4.53125,-1.5 -4.53125,-6.125 V -33.1875 c 0,-4.4375 2.4375,-5.953125 4.453125,-5.953125 2.09375,0 4.53125,1.515625 4.53125,5.953125 v 6.46875 h 6.71875 v -6.875 c 0,-7.234375 -4.109375,-11.4375 -11.25,-11.4375 -6.296875,0 -11.09375,3.703125 -11.09375,11.4375 v 23.015625 c 0,7.890625 4.796875,11.421875 11.09375,11.421875 z m 0,0"
           id="path12" />
      </g>
      <g
         id="glyph-0-13">
        <path
           d="m 18.3125,-44.859375 c -3.4375,0 -6.640625,1.59375 -8.3125,4.203125 V -59.140625 H 3.359375 V 0 H 10 v -33.015625 c 0,-4.453125 2.9375,-6.21875 5.625,-6.21875 2.859375,0 4.53125,2.015625 4.53125,6.140625 V 0 h 6.640625 v -35.03125 c 0,-6.125 -2.859375,-9.828125 -8.484375,-9.828125 z m 0,0"
           id="path13" />
      </g>
      <g
         id="glyph-0-14">
        <path
           d="m 20.15625,-59.140625 v 38.8125 l -10.078125,-38.8125 H 3.359375 V 0 h 6.71875 V -35.453125 L 20.15625,0 H 26.875 v -59.140625 z m 0,0"
           id="path14" />
      </g>
      <g
         id="glyph-0-15">
        <path
           d="m 19.234375,-44.015625 v 32.84375 c 0,4.453125 -2.609375,6.125 -5.125,6.125 -2.9375,0 -4.953125,-2.015625 -4.953125,-6.125 v -32.84375 H 2.515625 V -9.15625 c 0,6.046875 2.859375,10 10.078125,10 4.03125,0 7.0625,-2.1875 8.234375,-5.546875 L 21.25,0 h 4.625 v -44.015625 z m 0,0"
           id="path15" />
      </g>
      <g
         id="glyph-0-16">
        <path
           d="m 33.765625,-45.03125 c -3.1875,0 -6.375,1.6875 -8.0625,4.375 -1.171875,-2.859375 -3.6875,-4.375 -8.140625,-4.375 -4.125,0 -7.5625,1.9375 -9,5.125 l -0.328125,-4.109375 h -4.875 V 0 H 10 v -33.015625 c 0,-4.453125 2.515625,-6.21875 5.453125,-6.21875 2.9375,0 4.453125,1.515625 4.453125,5.640625 V 0 h 6.640625 v -33.015625 c 0,-4.453125 3.109375,-6.21875 5.125,-6.21875 3.265625,0 4.78125,1.515625 4.78125,5.640625 V 0 h 6.71875 v -35.609375 c 0,-6.046875 -2.4375,-9.421875 -9.40625,-9.421875 z m 0,0"
           id="path16" />
      </g>
      <g
         id="glyph-0-17">
        <path
           d="m 19.984375,-44.015625 -0.671875,4.28125 c -1.078125,-3.1875 -3.9375,-5.296875 -7.46875,-5.296875 -6.296875,0 -9.328125,3.875 -9.328125,10 v 22.265625 c 0,6.046875 3.03125,10.078125 9.328125,10.078125 2.859375,0 5.625,-1.59375 6.890625,-4.203125 v 8.40625 c 0,3.78125 -1.171875,6.625 -4.796875,6.625 -3.78125,0 -4.78125,-2.84375 -4.78125,-6.875 H 2.515625 V 2.1875 c 0,7.140625 3.78125,11.421875 11.421875,11.421875 6.890625,0 11.4375,-3.703125 11.4375,-11.421875 V -44.015625 Z M 13.9375,-8.5625 c -2.9375,0 -4.78125,-2.109375 -4.78125,-6.21875 v -18.234375 c 0,-4.203125 1.84375,-6.21875 4.78125,-6.21875 2.53125,0 4.796875,1.765625 4.796875,6.21875 v 18.234375 c 0,4.453125 -2.859375,6.21875 -4.796875,6.21875 z m 0,0"
           id="path17" />
      </g>
      <g
         id="glyph-0-18">
        <path
           d="m 27.640625,-5.875 c -2.4375,0 -4.125,-2.1875 -4.125,-5.640625 v -16.125 h 5.125 v -5.953125 l -15.109375,0.07813 c -2.53125,0 -5.046875,-1.171875 -5.046875,-5.875 v -8.578125 c 0,-4.53125 2.09375,-5.875 4.453125,-5.875 2.34375,0 4.203125,1.59375 4.203125,5.875 v 9.75 h 6.71875 v -10.328125 c 0,-7.734375 -4.703125,-11.265625 -10.84375,-11.265625 -7.140625,0 -11.171875,4.03125 -11.171875,11.265625 v 10.328125 c 0,4.03125 2.359375,6.71875 4.546875,7.890625 -2.359375,1.09375 -5.046875,3.359375 -5.046875,8.40625 v 11 c 0,7.0625 4.109375,11.59375 11.59375,11.59375 3.53125,0 6.375,-1.6875 7.890625,-4.03125 C 22.34375,-1.421875 24.953125,0 27.71875,0 L 28.8125,-0.078125 V -5.875 Z m -10.25,-5.71875 c 0,3.953125 -1.515625,5.96875 -4.53125,5.96875 -2.703125,0 -4.875,-2.015625 -4.875,-5.96875 l -0.09375,-10.25 c 0,-4.78125 3.109375,-5.796875 5.546875,-5.796875 h 3.953125 z m 0,0"
           id="path18" />
      </g>
      <g
         id="glyph-0-19">
        <path
           d="M 3.359375,0 H 14.875 c 6.625,0 11.5,-1.765625 11.5,-11 v -37.125 c 0,-8.578125 -4.875,-11.015625 -11.5,-11.015625 H 3.359375 Z M 10,-6.296875 v -46.625 h 4.78125 c 2.515625,0 4.875,1.34375 4.875,5.796875 v 35.109375 c 0,4.453125 -2.359375,5.71875 -4.953125,5.71875 z m 0,0"
           id="path19" />
      </g>
      <g
         id="glyph-0-20">
        <path
           d="m 14.28125,0.84375 h 0.421875 c 5.625,0 11.671875,-3.03125 11.671875,-12.265625 v -8.65625 c 0,-15.03125 -17.046875,-12.6875 -17.046875,-23.265625 V -47.625 c 0,-4.546875 2.59375,-6.296875 5.125,-6.296875 h 0.07813 c 2.859375,0 5.296875,1.75 5.296875,6.296875 v 8.234375 H 26.375 v -8.65625 c 0,-8.734375 -5.71875,-11.84375 -11.34375,-11.84375 h -0.421875 c -5.53125,0 -11.921875,2.09375 -11.921875,11.34375 V -42.25 c 0,14.453125 16.890625,12.515625 16.890625,23.015625 v 7.3125 c 0,4.609375 -2.4375,6.203125 -4.96875,6.203125 h -0.15625 c -2.78125,0 -5.21875,-1.59375 -5.21875,-6.203125 v -8.65625 H 2.6875 v 9.15625 c 0,9.234375 6.546875,12.265625 11.59375,12.265625 z m 0,0"
           id="path20" />
      </g>
    </g>
  </defs>
  <path
     fill="none"
     stroke-width="17.899"
     stroke-linecap="round"
     stroke-linejoin="miter"
     stroke="#eeb21d"
     stroke-opacity="1"
     stroke-miterlimit="4"
     d="M 253.14675,13.823189 C 196.74441,2.8935012 130.44362,10.332523 79.099873,37.902835 c -33.8125,18.160156 -68.49218,53.082031 -70.09765,94.121095 -1.27735,32.58203 21.13281,61.01172 50.5625,72.92578 43.902337,17.78125 77.410147,-16.44531 106.390617,-43.83594"
     id="path21" />
  <path
     fill="none"
     stroke-width="17.898"
     stroke-linecap="round"
     stroke-linejoin="miter"
     stroke="#0c4d8b"
     stroke-opacity="1"
     stroke-miterlimit="4"
     d="m 255.06472,63.715335 c 0,0 18.90468,-36.298705 23.74609,-44.609375 5.18289,-8.896843 149.89453,35.976563 125.91016,194.26563 -17.98829,58.99609 -80.96094,26.65702 -109.36328,25.00784"
     id="path22" />
  <path
     fill="none"
     stroke-width="11.932"
     stroke-linecap="round"
     stroke-linejoin="miter"
     stroke="#eeb21d"
     stroke-opacity="1"
     stroke-miterlimit="4"
     d="m 183.53347,161.72315 c 13.50781,0 24.45703,-10.94922 24.45703,-24.45703 0,-13.50782 -10.94922,-24.45703 -24.45703,-24.45703 -13.50781,0 -24.45703,10.94921 -24.45703,24.45703 0,13.50781 10.94922,24.45703 24.45703,24.45703 z m 0,0"
     id="path23" />
  <path
     fill="none"
     stroke-width="11.932"
     stroke-linecap="round"
     stroke-linejoin="miter"
     stroke="#0c4d8b"
     stroke-opacity="1"
     stroke-miterlimit="4"
     d="m 243.37331,113.6958 c 13.50782,0 24.45703,-10.95312 24.45703,-24.460934 0,-13.507812 -10.94921,-24.457031 -24.45703,-24.457031 -13.50781,0 -24.45703,10.949219 -24.45703,24.457031 0,13.507814 10.94922,24.460934 24.45703,24.460934 z m 0,0"
     id="path24" />
  <path
     fill="none"
     stroke-width="11.932"
     stroke-linecap="round"
     stroke-linejoin="miter"
     stroke="#ce2027"
     stroke-opacity="1"
     stroke-miterlimit="4"
     d="m 252.36941,191.17627 c 13.50781,0 24.45703,-10.94922 24.45703,-24.45703 0,-13.50781 -10.94922,-24.45703 -24.45703,-24.45703 -13.50782,0 -24.46094,10.94922 -24.46094,24.45703 0,13.50781 10.95312,24.45703 24.46094,24.45703 z m 0,0"
     id="path25" />
  <path
     fill="none"
     stroke-width="17.899"
     stroke-linecap="round"
     stroke-linejoin="miter"
     stroke="rgb(80.784607%, 12.548828%, 15.293884%)"
     stroke-opacity="1"
     stroke-miterlimit="4"
     d="m 249.67019,283.83252 c 15.10937,29.66797 41.82422,34.5625 71.61719,21.81641 7.14062,-3.05469 32.61718,-21.00784 27.62499,-28.60941 -4.99609,-7.60156 -74.55468,-18.54684 -89.93359,-18.16403 -16.25,0.40625 -32.69531,4.75 -48.86719,6.41406 -19.43359,2 -44.6914,4.63672 -61.84765,-6.8789 -5.45313,-3.66406 -9.375,-8.75 -11.17188,-15.10156 -3.66015,-12.96094 2.77735,-14.52344 13.45703,-19.91797 16.86329,-8.52344 33.70704,-17.08985 50.44922,-25.84766 9.25782,-4.83984 18.62891,-9.57812 27.59766,-14.95312"
     id="path26"
     style="fill:none;fill-rule:nonzero;stroke:#ce2027;stroke-width:17.899" />
</svg>
